<?xml version="1.0" encoding="UTF-8"?><svg id="_レイヤー_1" xmlns="http://www.w3.org/2000/svg" xmlns:xlink="http://www.w3.org/1999/xlink" viewBox="0 0 215 139"><defs><style>.cls-1{fill:#d35de6;}.cls-1,.cls-2{stroke-width:0px;}.cls-3{clip-path:url(#clippath);}.cls-2{fill:none;}</style><clipPath id="clippath"><rect class="cls-2" x="14.37" y="4.09" width="46.89" height="132.61"/></clipPath></defs><g class="cls-3"><path class="cls-1" d="M60.6,135.27c-3.27-3.6-5.69-7.8-8.38-11.81-.61-.91-.72-1.76-.33-2.85,1.26-3.55,2.09-7.19,2.4-10.98.6-7.34-.89-14.51-1.63-21.73-.04-.43-.16-.89-.68-.9-.53-.01-.6.46-.69.88-.44,1.98-.86,3.96-1.34,5.93-.96,4.04-1.77,8.14-2.07,12.29-.15,2.07-.17,4.16-.03,6.23.12,1.73.08,3.3.98,4.88-.56-.75-.97-1.64-1.41-2.46-2.35-4.4-4.22-9.11-6.13-13.71-1.05-2.52-2.08-5.06-3.04-7.62-.52-1.38-1.24-2.88-1.43-4.36.69-.08,1.39-.17,2.08-.25,2.36-.28,4.55-1,6.3-2.7.43-.41.86-.85,1.17-1.35.91-1.46.27-2.58-1.47-2.61-.47,0-.94.14-1.41.2-.45.05-.88.39-1.4.05.34-.76.72-1.5,1.02-2.27.59-1.49.51-2.55-.18-2.97-1.64-1.01-4.1,1.76-4.67,3.09.06-.71-.09-1.43.01-2.14.1-.69.18-1.18-.1-1.89-.24-.62-.5-1.26-1.29-1.33-.79-.07-1.15.52-1.46,1.11-.53,1.03-.66,2.16-.69,3.3-.02.73-.13,1.53-.1,2.25.04.8.37,1.59.42,2.4-.56-1.19-.78-2.54-1.22-3.78-.5-1.4-.9-2.83-1.29-4.26-.77-2.86-1.37-5.76-1.94-8.66-.13-.67.25-.86.82-.8.77.09,1.53.25,2.3.33,2.71.29,5.56-1.17,6.62-3.37.8-1.68.12-2.81-1.74-2.93-.65-.04-1.29.29-2.01-.01.05-.87.49-1.7.43-2.59-.08-1.33-.86-1.84-2.06-1.24-.62.31-1.17.75-1.84,1.19-.18-1.01-.08-1.93-.55-2.73-.55-.93-1.36-.98-1.94-.06-.25.39-.39.87-.54,1.32-.12.34-.17.69-.27,1.04-.07.28.01.65-.51,1.02-.61-4.91-.98-9.62-.98-14.47,1.63.27,2.92.94,4.29,1.31,1.35.36,2.71.55,4.03-.05,1.52-.69,1.71-1.97.5-3.13-.7-.68-1.55-1.1-2.5-1.32-.48-.11-.96-.24-1.68-.42,1.07-.82,2.05-1.3,2.77-2.09.87-.94,1.6-1.95,1.62-3.29.02-1.34-.74-1.86-1.97-1.37-.73.29-1.31.81-1.89,1.33-.78.7-1.59,1.38-2.34,2.04.24-1.14.79-2.35.89-3.66.07-.97.06-1.91-.48-2.77-.46-.73-1.01-1.11-1.88-.92-.68.15-1.41.88-1.41,1.63,0-2.45-.06-4.88.09-7.33.11-1.7.08-3.8.75-5.4.88.62,1.65,1.41,2.69,1.75,1.06.35,2.32-.1,2.99-1.05.56-.79.52-1.65-.24-2.63-.46-.6-1.03-1.12-1.55-1.68.28-.64.9-.84,1.34-1.22.59-.51,1.16-1.03,1.57-1.7.39-.64.67-1.32.15-2-.5-.66-1.24-.63-1.97-.47-.89.2-1.6.78-2.48,1.2-.09-.99.36-1.81.5-2.67.17-1.08.25-2.15-.3-3.14-.54-.99-1.38-1.11-2.19-.32-.67.64-.97,1.49-1.22,2.36-.2.71-.35,1.43-.57,2.35-.71-.89-1.06-1.74-1.79-2.28-1.15-.85-2.01-.57-2.44.77-.36,1.1-.1,2.12.33,3.13.27.64.57,1.27.92,2.03-1.17.24-2.24.44-2.98,1.31-.58.67-.89,1.44-.58,2.31.28.83,1,1.15,1.8,1.29,1.02.18,2.02-.05,3.01-.25.55-.11,1.04-.61,1.82-.24-.56,4.5-.65,9.07-.97,13.94-.66-.74-1.05-1.25-1.52-1.68-1.04-.93-2.05-.6-2.37.76-.19.82-.05,1.65.07,2.49.14.97.56,1.9.51,3.01-.66-.2-.98-.65-1.39-.98-.75-.61-1.57-1.08-2.53-1.27-.88-.17-1.68-.13-2.19.74-.52.86-.18,1.61.36,2.31.55.73,1.34,1.17,2.07,1.69.55.4,1.26.62,1.63,1.35-.66.18-1.24.31-1.8.5-1.03.35-2,.8-2.65,1.73-.95,1.38-.56,2.41,1.07,2.74.94.19,1.9.12,2.85-.04,2-.35,3.89-1.02,5.67-2.07.35,1.42.91,11.91.72,12.91-.17-.04-.34-.07-.5-.13-.91-.41-1.84-.72-2.64.15-.83.9-.48,1.89-.06,2.84.28.63.62,1.23.96,1.89-.63.19-1.03-.17-1.47-.28-.77-.19-1.54-.24-2.29.06-.78.31-1.59.68-1.69,1.66-.11.99.63,1.46,1.33,1.94.63.43,1.5.38,2.11,1.07-.44.23-.81.41-1.17.61-.63.34-1.21.77-1.68,1.32-1.18,1.35-.8,2.44.98,2.77.52.09,1.07.07,1.6.02,1.69-.18,3.23-.8,4.66-1.71.52-.33.98-.87,1.77-.79.7,4.19,1.87,8.24,3.06,12.72-1.2-1.05-2.1-1.75-3.27-1.89-1-.12-1.96-.01-2.51.95-.52.92-.05,1.71.51,2.46.45.6,1.13,1.02,1.45,1.71-.35.41-.72.24-1.05.25-1.33.04-2.62.31-3.77.98-1.02.59-1.05,1.42-.11,2.14.87.67,1.88,1.03,2.95,1.23.86.15,1.71.31,2.83.52-.75.59-1.32.99-1.83,1.45-1.28,1.18-1.71,2.46-1.13,3.27.54.76,1.79.83,3.32.2.84-.34,1.55-.88,2.29-1.38,1.07-.74,2.05-1.63,3.33-2.23-.06.03.68,2.12.75,2.32,1.51,4.52,3.32,8.93,5.24,13.28.96,2.18,1.95,4.34,2.95,6.5.47,1.02.91,2.06,1.38,3.08.38.82,1.01,1.51,1.26,2.41-.91-1.28-2.47-2.31-3.78-3.13-1.58-.99-3.21-1.88-4.89-2.68-3.14-1.48-6.14-3.21-9.07-5.04-4.97-3.1-9.36-6.81-12.14-12.12-.53-1-1.05-2.01-1.6-3-.22-.39-.37-.92-1-.86-.34.55-.04,1.03.16,1.52.77,1.81,1.57,3.61,2.33,5.43,1.49,3.55,3.42,6.85,5.96,9.73,3.08,3.49,6.32,6.86,10.55,9.02,3.4,1.73,6.82,3.42,10.5,4.54,1.48.45,2.92,1.06,4.35,1.66,1.23.51,2.2,1.29,2.93,2.49,1.78,2.97,3.76,5.81,5.83,8.59.78,1.05,1.65,2.05,2.52,3.02.34.38.87.9,1.35.5.64-.53-.1-.95-.41-1.28M44.48,83.21c.39-.07.88-.17,1.12.28.24.45-.12.78-.41,1.07-1.98,2.04-4.46,2.79-7.42,2.85,1.76-2.37,3.98-3.69,6.7-4.2ZM41.07,78.55c.21-.2.48-.35.74-.48.45-.23.66.02.72.44.02.17-.03.36-.09.52-.86,2.53-2.39,4.56-4.7,6.02.72-2.37,1.43-4.74,3.33-6.5ZM37.48,61.73c.45-.12.94-.16,1.4-.12.71.05.91.5.63,1.12-.38.84-1.04,1.45-1.82,1.89-1.62.89-3.31,1.27-5.3.44,1.43-1.73,3.11-2.78,5.09-3.33ZM34.98,57.75c.28-.21.59-.49.95-.23.33.24.24.63.16.98-.5,2.1-1.76,3.54-3.96,4.49.23-2.29,1.16-3.98,2.85-5.24ZM31.5,55.67c.85,1.8.55,4.12-.84,6.3,0-2.31.04-4.24.84-6.3ZM34.86,34.88c.4-.33.91-.81,1.41-.47.64.44.2,1.09-.03,1.6-.48,1.06-1.33,1.8-2.3,2.41-.95.6-1.92,1.15-3.16,1.32,1.18-1.78,2.42-3.5,4.07-4.86ZM29.13,32.23c.11-.6.18-1.49,1.02-1.41.77.07.8.93.9,1.56.12.72-.07,1.42-.25,2.11-.43,1.65-1.07,3.22-2.04,4.67-.1-2.35-.05-4.65.37-6.92ZM29.03,41.99c1.82-.44,3.65-.26,5.45.09.64.12,1.24.41,1.75.82.64.52.57,1.03-.2,1.28-.39.12-.82.18-1.22.15-2.25-.14-4.22-1.23-6.31-1.72.03-.57.31-.57.52-.62ZM33.58,17.47c.27.39.58.8.22,1.28-.4.53-.95.68-1.57.42-.94-.4-1.67-1.09-2.34-1.84-.23-.26-.42-.55-.71-.95,2.27-1.03,3.11-.8,4.4,1.08ZM34.03,10.75c.31-.14.69-.37.99-.05.32.35,0,.68-.22.92-1.18,1.34-2.6,2.31-4.41,2.63.96-1.45,2.02-2.78,3.64-3.5ZM30.62,5.08c1.1,1.86.39,5.25-1.66,7.73.16-2.83-.07-5.41,1.66-7.73ZM23.5,16.56c-.37-.02-.72-.15-.84-.54-.11-.38.08-.7.34-.96.35-.35.78-.6,1.27-.59,1.13.04,2.22.25,3.06,1.3-1.24.72-2.51.88-3.83.79ZM27.52,13.72c-1.66-1.19-2.7-2.77-3.07-4.75-.09-.5-.17-1.2.46-1.39.59-.18.96.4,1.24.84,1.01,1.58,1.48,3.33,1.37,5.3ZM19.14,36.44c-.23-.16-.42-.41-.59-.65-.21-.31-.3-.66-.04-.98.2-.24.51-.29.81-.22.58.13,1.15.32,1.62.69,1.61,1.29,3.04,2.76,4.25,4.46-2.26-.73-4.16-2.01-6.05-3.31ZM18.8,43.53c-.27-.02-.62,0-.73-.37-.1-.33.11-.57.32-.77.62-.6,1.4-.91,2.22-1.08,1.59-.32,3.17-.3,5.05.63-2.43,1.14-4.56,1.72-6.86,1.58ZM26.76,38.4c-1.76-2.5-2.64-4.94-2.58-7.92,1.88,1.36,3.02,4.95,2.58,7.92ZM22.14,62.67c-.37-.11-.9-.3-.83-.8.08-.57.67-.62,1.13-.65.4-.02.84.04,1.22.18,1.52.55,2.87,1.39,4.06,2.46-.05.13-.1.26-.15.39-1.81-.53-3.63-1.04-5.44-1.59ZM20.96,68.18c.99-2.29,4.35-3.27,6.96-2.05-2.1,1.57-4.26,2.57-6.96,2.05ZM28.41,61.82c-1.36-1.22-2.38-2.63-3.15-4.23-.2-.42-.4-.96.09-1.29.46-.31.9.03,1.28.32.64.48,1.01,1.16,1.28,1.88.4,1.05.56,2.15.49,3.32ZM28.14,80.44c-.32-.33-.71-.74-.34-1.24.33-.43.84-.38,1.31-.27.52.13,1.02.35,1.4.73,1.37,1.38,2.34,3.04,3.25,4.76-2.39-.7-4.03-2.32-5.63-3.98ZM24.32,85.31c2.53-1.67,6.08-1.2,8.85,1.1-3.13.6-5.92.05-8.85-1.1ZM29.67,91.77c-.64.34-1.57.88-2.05.1-.39-.64.44-1.27.97-1.71,1.61-1.33,3.5-1.88,5.59-1.81-1.45,1.28-2.85,2.54-4.52,3.43ZM36.82,76.34c.91,2.8.28,5.49-.6,8.17-.27-2.75-.86-5.51.6-8.17ZM37,115.97c-4.3-1.99-7.97-4.72-11.27-8.05-2.11-2.12-3.83-4.55-5.25-7.26.69.63,1.39,1.27,2.08,1.91,4.23,3.84,9.15,6.63,14.19,9.23,2.81,1.45,5.6,2.92,8.16,4.78,1.06.77,2.07,1.61,2.98,2.56.48.5.94,1.02,1.35,2.08-4.21-2.1-8.31-3.44-12.24-5.25ZM50.74,119.69c-1.16-1.98-1.38-3.99-1.6-5.99-.64-5.75-.01-11.4,1.28-17.01.35-1.49.7-2.98,1.1-4.67,2.37,5.36,1.88,21.94-.77,27.67Z"/></g><path class="cls-1" d="M70.92,50.2v28.17h15.19v2.89h-18.72v-31.06h3.53Z"/><path class="cls-1" d="M118.65,77.33c-2.77,2.91-6.43,4.36-11,4.36s-8.24-1.45-11.02-4.36c-2.78-2.91-4.17-6.77-4.17-11.6s1.39-8.69,4.17-11.6c2.78-2.91,6.45-4.36,11.02-4.36s8.23,1.45,11,4.36c2.77,2.91,4.15,6.77,4.15,11.6s-1.38,8.69-4.15,11.6ZM107.65,78.84c3.52,0,6.35-1.18,8.49-3.55,2.14-2.37,3.21-5.55,3.21-9.55s-1.07-7.18-3.21-9.55c-2.14-2.37-4.97-3.55-8.49-3.55s-6.39,1.19-8.53,3.55-3.21,5.55-3.21,9.55,1.07,7.19,3.21,9.55c2.14,2.37,4.99,3.55,8.53,3.55Z"/><path class="cls-1" d="M144.58,52.54c-4,0-7.14,1.19-9.43,3.57-2.28,2.38-3.43,5.59-3.43,9.62s1.18,7.27,3.55,9.64c2.37,2.37,5.57,3.55,9.6,3.55,2.52,0,4.84-.47,6.94-1.4v-11.62h-10.77v-2.72h14.04v16.17c-3.21,1.56-6.71,2.34-10.51,2.34-4.94,0-8.89-1.45-11.85-4.34-2.96-2.89-4.45-6.77-4.45-11.62s1.45-8.72,4.34-11.62c2.89-2.89,6.79-4.34,11.7-4.34,3.6,0,6.81.85,9.62,2.55l-1.15,2.51c-2.55-1.53-5.29-2.3-8.21-2.3Z"/><path class="cls-1" d="M188.26,77.33c-2.77,2.91-6.43,4.36-11,4.36s-8.24-1.45-11.02-4.36c-2.78-2.91-4.17-6.77-4.17-11.6s1.39-8.69,4.17-11.6c2.78-2.91,6.45-4.36,11.02-4.36s8.23,1.45,11,4.36c2.77,2.91,4.15,6.77,4.15,11.6s-1.38,8.69-4.15,11.6ZM177.26,78.84c3.52,0,6.35-1.18,8.49-3.55,2.14-2.37,3.21-5.55,3.21-9.55s-1.07-7.18-3.21-9.55c-2.14-2.37-4.97-3.55-8.49-3.55s-6.39,1.19-8.53,3.55c-2.14,2.37-3.21,5.55-3.21,9.55s1.07,7.19,3.21,9.55c2.14,2.37,4.99,3.55,8.53,3.55Z"/></svg>